<svg width="1440" height="1152" viewBox="0 0 1440 1152" fill="none" xmlns="http://www.w3.org/2000/svg">
<g clip-path="url(#clip0_976_4866)">
<rect width="1440" height="1152" fill="#0F2028"/>
<g opacity="0.5" filter="url(#filter0_f_976_4866)">
<ellipse cx="172.305" cy="881.368" rx="172.305" ry="159.632" fill="#D2F801" fill-opacity="0.34"/>
</g>
<g opacity="0.5" filter="url(#filter1_f_976_4866)">
<ellipse cx="474.937" cy="420.108" rx="172.305" ry="159.632" fill="#D2F801" fill-opacity="0.34"/>
</g>
<g opacity="0.5" filter="url(#filter2_f_976_4866)">
<ellipse cx="1292.94" cy="112.971" rx="121.939" ry="112.971" fill="#D2F801"/>
</g>
<g opacity="0.5" clip-path="url(#clip1_976_4866)">
<mask id="mask0_976_4866" style="mask-type:alpha" maskUnits="userSpaceOnUse" x="-1" y="0" width="1440" height="1440">
<rect width="1440" height="1197" transform="translate(-1)" fill="url(#paint0_radial_976_4866)"/>
</mask>
<g mask="url(#mask0_976_4866)">
<g clip-path="url(#clip2_976_4866)">
<mask id="path-6-inside-1_976_4866" fill="white">
<path d="M-49 0H47V96H-49V0Z"/>
</mask>
<path d="M47 96V97H48V96H47ZM47 0H46V96H47H48V0H47ZM47 96V95H-49V96V97H47V96Z" fill="#D0D5DD" fill-opacity="0.32" mask="url(#path-6-inside-1_976_4866)"/>
<mask id="path-8-inside-2_976_4866" fill="white">
<path d="M47 0H143V96H47V0Z"/>
</mask>
<path d="M143 96V97H144V96H143ZM143 0H142V96H143H144V0H143ZM143 96V95H47V96V97H143V96Z" fill="#D0D5DD" fill-opacity="0.32" mask="url(#path-8-inside-2_976_4866)"/>
<mask id="path-10-inside-3_976_4866" fill="white">
<path d="M143 0H239V96H143V0Z"/>
</mask>
<path d="M239 96V97H240V96H239ZM239 0H238V96H239H240V0H239ZM239 96V95H143V96V97H239V96Z" fill="#D0D5DD" fill-opacity="0.32" mask="url(#path-10-inside-3_976_4866)"/>
<mask id="path-12-inside-4_976_4866" fill="white">
<path d="M239 0H335V96H239V0Z"/>
</mask>
<path d="M335 96V97H336V96H335ZM335 0H334V96H335H336V0H335ZM335 96V95H239V96V97H335V96Z" fill="#D0D5DD" fill-opacity="0.32" mask="url(#path-12-inside-4_976_4866)"/>
<mask id="path-14-inside-5_976_4866" fill="white">
<path d="M335 0H431V96H335V0Z"/>
</mask>
<path d="M431 96V97H432V96H431ZM431 0H430V96H431H432V0H431ZM431 96V95H335V96V97H431V96Z" fill="#D0D5DD" fill-opacity="0.32" mask="url(#path-14-inside-5_976_4866)"/>
<mask id="path-16-inside-6_976_4866" fill="white">
<path d="M431 0H527V96H431V0Z"/>
</mask>
<path d="M527 96V97H528V96H527ZM527 0H526V96H527H528V0H527ZM527 96V95H431V96V97H527V96Z" fill="#D0D5DD" fill-opacity="0.32" mask="url(#path-16-inside-6_976_4866)"/>
<mask id="path-18-inside-7_976_4866" fill="white">
<path d="M527 0H623V96H527V0Z"/>
</mask>
<path d="M623 96V97H624V96H623ZM623 0H622V96H623H624V0H623ZM623 96V95H527V96V97H623V96Z" fill="#D0D5DD" fill-opacity="0.32" mask="url(#path-18-inside-7_976_4866)"/>
<mask id="path-20-inside-8_976_4866" fill="white">
<path d="M623 0H719V96H623V0Z"/>
</mask>
<path d="M719 96V97H720V96H719ZM719 0H718V96H719H720V0H719ZM719 96V95H623V96V97H719V96Z" fill="#D0D5DD" fill-opacity="0.32" mask="url(#path-20-inside-8_976_4866)"/>
<mask id="path-22-inside-9_976_4866" fill="white">
<path d="M719 0H815V96H719V0Z"/>
</mask>
<path d="M815 96V97H816V96H815ZM815 0H814V96H815H816V0H815ZM815 96V95H719V96V97H815V96Z" fill="#D0D5DD" fill-opacity="0.32" mask="url(#path-22-inside-9_976_4866)"/>
<mask id="path-24-inside-10_976_4866" fill="white">
<path d="M815 0H911V96H815V0Z"/>
</mask>
<path d="M911 96V97H912V96H911ZM911 0H910V96H911H912V0H911ZM911 96V95H815V96V97H911V96Z" fill="#D0D5DD" fill-opacity="0.32" mask="url(#path-24-inside-10_976_4866)"/>
<mask id="path-26-inside-11_976_4866" fill="white">
<path d="M911 0H1007V96H911V0Z"/>
</mask>
<path d="M1007 96V97H1008V96H1007ZM1007 0H1006V96H1007H1008V0H1007ZM1007 96V95H911V96V97H1007V96Z" fill="#D0D5DD" fill-opacity="0.32" mask="url(#path-26-inside-11_976_4866)"/>
<mask id="path-28-inside-12_976_4866" fill="white">
<path d="M1007 0H1103V96H1007V0Z"/>
</mask>
<path d="M1103 96V97H1104V96H1103ZM1103 0H1102V96H1103H1104V0H1103ZM1103 96V95H1007V96V97H1103V96Z" fill="#D0D5DD" fill-opacity="0.32" mask="url(#path-28-inside-12_976_4866)"/>
<mask id="path-30-inside-13_976_4866" fill="white">
<path d="M1103 0H1199V96H1103V0Z"/>
</mask>
<path d="M1199 96V97H1200V96H1199ZM1199 0H1198V96H1199H1200V0H1199ZM1199 96V95H1103V96V97H1199V96Z" fill="#D0D5DD" fill-opacity="0.32" mask="url(#path-30-inside-13_976_4866)"/>
<mask id="path-32-inside-14_976_4866" fill="white">
<path d="M1199 0H1295V96H1199V0Z"/>
</mask>
<path d="M1295 96V97H1296V96H1295ZM1295 0H1294V96H1295H1296V0H1295ZM1295 96V95H1199V96V97H1295V96Z" fill="#D0D5DD" fill-opacity="0.32" mask="url(#path-32-inside-14_976_4866)"/>
<mask id="path-34-inside-15_976_4866" fill="white">
<path d="M1295 0H1391V96H1295V0Z"/>
</mask>
<path d="M1391 96V97H1392V96H1391ZM1391 0H1390V96H1391H1392V0H1391ZM1391 96V95H1295V96V97H1391V96Z" fill="#D0D5DD" fill-opacity="0.32" mask="url(#path-34-inside-15_976_4866)"/>
<mask id="path-36-inside-16_976_4866" fill="white">
<path d="M1391 0H1487V96H1391V0Z"/>
</mask>
<path d="M1487 96V97H1488V96H1487ZM1487 0H1486V96H1487H1488V0H1487ZM1487 96V95H1391V96V97H1487V96Z" fill="#D0D5DD" fill-opacity="0.32" mask="url(#path-36-inside-16_976_4866)"/>
<mask id="path-38-inside-17_976_4866" fill="white">
<path d="M-49 96H47V192H-49V96Z"/>
</mask>
<path d="M47 192V193H48V192H47ZM47 96H46V192H47H48V96H47ZM47 192V191H-49V192V193H47V192Z" fill="#D0D5DD" fill-opacity="0.32" mask="url(#path-38-inside-17_976_4866)"/>
<mask id="path-40-inside-18_976_4866" fill="white">
<path d="M47 96H143V192H47V96Z"/>
</mask>
<path d="M143 192V193H144V192H143ZM143 96H142V192H143H144V96H143ZM143 192V191H47V192V193H143V192Z" fill="#D0D5DD" fill-opacity="0.32" mask="url(#path-40-inside-18_976_4866)"/>
<mask id="path-42-inside-19_976_4866" fill="white">
<path d="M143 96H239V192H143V96Z"/>
</mask>
<path d="M239 192V193H240V192H239ZM239 96H238V192H239H240V96H239ZM239 192V191H143V192V193H239V192Z" fill="#D0D5DD" fill-opacity="0.32" mask="url(#path-42-inside-19_976_4866)"/>
<mask id="path-44-inside-20_976_4866" fill="white">
<path d="M239 96H335V192H239V96Z"/>
</mask>
<path d="M239 96H335V192H239V96Z" fill="#F2F4F7" fill-opacity="0.1"/>
<path d="M335 192V193H336V192H335ZM335 96H334V192H335H336V96H335ZM335 192V191H239V192V193H335V192Z" fill="#D0D5DD" fill-opacity="0.32" mask="url(#path-44-inside-20_976_4866)"/>
<mask id="path-46-inside-21_976_4866" fill="white">
<path d="M335 96H431V192H335V96Z"/>
</mask>
<path d="M431 192V193H432V192H431ZM431 96H430V192H431H432V96H431ZM431 192V191H335V192V193H431V192Z" fill="#D0D5DD" fill-opacity="0.32" mask="url(#path-46-inside-21_976_4866)"/>
<mask id="path-48-inside-22_976_4866" fill="white">
<path d="M431 96H527V192H431V96Z"/>
</mask>
<path d="M527 192V193H528V192H527ZM527 96H526V192H527H528V96H527ZM527 192V191H431V192V193H527V192Z" fill="#D0D5DD" fill-opacity="0.32" mask="url(#path-48-inside-22_976_4866)"/>
<mask id="path-50-inside-23_976_4866" fill="white">
<path d="M527 96H623V192H527V96Z"/>
</mask>
<path d="M623 192V193H624V192H623ZM623 96H622V192H623H624V96H623ZM623 192V191H527V192V193H623V192Z" fill="#D0D5DD" fill-opacity="0.32" mask="url(#path-50-inside-23_976_4866)"/>
<mask id="path-52-inside-24_976_4866" fill="white">
<path d="M623 96H719V192H623V96Z"/>
</mask>
<path d="M719 192V193H720V192H719ZM719 96H718V192H719H720V96H719ZM719 192V191H623V192V193H719V192Z" fill="#D0D5DD" fill-opacity="0.32" mask="url(#path-52-inside-24_976_4866)"/>
<mask id="path-54-inside-25_976_4866" fill="white">
<path d="M719 96H815V192H719V96Z"/>
</mask>
<path d="M815 192V193H816V192H815ZM815 96H814V192H815H816V96H815ZM815 192V191H719V192V193H815V192Z" fill="#D0D5DD" fill-opacity="0.32" mask="url(#path-54-inside-25_976_4866)"/>
<mask id="path-56-inside-26_976_4866" fill="white">
<path d="M815 96H911V192H815V96Z"/>
</mask>
<path d="M911 192V193H912V192H911ZM911 96H910V192H911H912V96H911ZM911 192V191H815V192V193H911V192Z" fill="#D0D5DD" fill-opacity="0.32" mask="url(#path-56-inside-26_976_4866)"/>
<mask id="path-58-inside-27_976_4866" fill="white">
<path d="M911 96H1007V192H911V96Z"/>
</mask>
<path d="M1007 192V193H1008V192H1007ZM1007 96H1006V192H1007H1008V96H1007ZM1007 192V191H911V192V193H1007V192Z" fill="#D0D5DD" fill-opacity="0.32" mask="url(#path-58-inside-27_976_4866)"/>
<mask id="path-60-inside-28_976_4866" fill="white">
<path d="M1007 96H1103V192H1007V96Z"/>
</mask>
<path d="M1103 192V193H1104V192H1103ZM1103 96H1102V192H1103H1104V96H1103ZM1103 192V191H1007V192V193H1103V192Z" fill="#D0D5DD" fill-opacity="0.32" mask="url(#path-60-inside-28_976_4866)"/>
<mask id="path-62-inside-29_976_4866" fill="white">
<path d="M1103 96H1199V192H1103V96Z"/>
</mask>
<path d="M1103 96H1199V192H1103V96Z" fill="#F2F4F7" fill-opacity="0.1"/>
<path d="M1199 192V193H1200V192H1199ZM1199 96H1198V192H1199H1200V96H1199ZM1199 192V191H1103V192V193H1199V192Z" fill="#D0D5DD" fill-opacity="0.32" mask="url(#path-62-inside-29_976_4866)"/>
<mask id="path-64-inside-30_976_4866" fill="white">
<path d="M1199 96H1295V192H1199V96Z"/>
</mask>
<path d="M1295 192V193H1296V192H1295ZM1295 96H1294V192H1295H1296V96H1295ZM1295 192V191H1199V192V193H1295V192Z" fill="#D0D5DD" fill-opacity="0.32" mask="url(#path-64-inside-30_976_4866)"/>
<mask id="path-66-inside-31_976_4866" fill="white">
<path d="M1295 96H1391V192H1295V96Z"/>
</mask>
<path d="M1391 192V193H1392V192H1391ZM1391 96H1390V192H1391H1392V96H1391ZM1391 192V191H1295V192V193H1391V192Z" fill="#D0D5DD" fill-opacity="0.32" mask="url(#path-66-inside-31_976_4866)"/>
<mask id="path-68-inside-32_976_4866" fill="white">
<path d="M1391 96H1487V192H1391V96Z"/>
</mask>
<path d="M1487 192V193H1488V192H1487ZM1487 96H1486V192H1487H1488V96H1487ZM1487 192V191H1391V192V193H1487V192Z" fill="#D0D5DD" fill-opacity="0.32" mask="url(#path-68-inside-32_976_4866)"/>
<mask id="path-70-inside-33_976_4866" fill="white">
<path d="M-49 192H47V288H-49V192Z"/>
</mask>
<path d="M47 288V289H48V288H47ZM47 192H46V288H47H48V192H47ZM47 288V287H-49V288V289H47V288Z" fill="#D0D5DD" fill-opacity="0.32" mask="url(#path-70-inside-33_976_4866)"/>
<mask id="path-72-inside-34_976_4866" fill="white">
<path d="M47 192H143V288H47V192Z"/>
</mask>
<path d="M143 288V289H144V288H143ZM143 192H142V288H143H144V192H143ZM143 288V287H47V288V289H143V288Z" fill="#D0D5DD" fill-opacity="0.32" mask="url(#path-72-inside-34_976_4866)"/>
<mask id="path-74-inside-35_976_4866" fill="white">
<path d="M143 192H239V288H143V192Z"/>
</mask>
<path d="M239 288V289H240V288H239ZM239 192H238V288H239H240V192H239ZM239 288V287H143V288V289H239V288Z" fill="#D0D5DD" fill-opacity="0.32" mask="url(#path-74-inside-35_976_4866)"/>
<mask id="path-76-inside-36_976_4866" fill="white">
<path d="M239 192H335V288H239V192Z"/>
</mask>
<path d="M335 288V289H336V288H335ZM335 192H334V288H335H336V192H335ZM335 288V287H239V288V289H335V288Z" fill="#D0D5DD" fill-opacity="0.32" mask="url(#path-76-inside-36_976_4866)"/>
<mask id="path-78-inside-37_976_4866" fill="white">
<path d="M335 192H431V288H335V192Z"/>
</mask>
<path d="M431 288V289H432V288H431ZM431 192H430V288H431H432V192H431ZM431 288V287H335V288V289H431V288Z" fill="#D0D5DD" fill-opacity="0.32" mask="url(#path-78-inside-37_976_4866)"/>
<mask id="path-80-inside-38_976_4866" fill="white">
<path d="M431 192H527V288H431V192Z"/>
</mask>
<path d="M431 192H527V288H431V192Z" fill="#F2F4F7" fill-opacity="0.1"/>
<path d="M527 288V289H528V288H527ZM527 192H526V288H527H528V192H527ZM527 288V287H431V288V289H527V288Z" fill="#D0D5DD" fill-opacity="0.32" mask="url(#path-80-inside-38_976_4866)"/>
<mask id="path-82-inside-39_976_4866" fill="white">
<path d="M527 192H623V288H527V192Z"/>
</mask>
<path d="M623 288V289H624V288H623ZM623 192H622V288H623H624V192H623ZM623 288V287H527V288V289H623V288Z" fill="#D0D5DD" fill-opacity="0.32" mask="url(#path-82-inside-39_976_4866)"/>
<mask id="path-84-inside-40_976_4866" fill="white">
<path d="M623 192H719V288H623V192Z"/>
</mask>
<path d="M719 288V289H720V288H719ZM719 192H718V288H719H720V192H719ZM719 288V287H623V288V289H719V288Z" fill="#D0D5DD" fill-opacity="0.32" mask="url(#path-84-inside-40_976_4866)"/>
<mask id="path-86-inside-41_976_4866" fill="white">
<path d="M719 192H815V288H719V192Z"/>
</mask>
<path d="M815 288V289H816V288H815ZM815 192H814V288H815H816V192H815ZM815 288V287H719V288V289H815V288Z" fill="#D0D5DD" fill-opacity="0.32" mask="url(#path-86-inside-41_976_4866)"/>
<mask id="path-88-inside-42_976_4866" fill="white">
<path d="M815 192H911V288H815V192Z"/>
</mask>
<path d="M815 192H911V288H815V192Z" fill="#F2F4F7" fill-opacity="0.1"/>
<path d="M911 288V289H912V288H911ZM911 192H910V288H911H912V192H911ZM911 288V287H815V288V289H911V288Z" fill="#D0D5DD" fill-opacity="0.32" mask="url(#path-88-inside-42_976_4866)"/>
<mask id="path-90-inside-43_976_4866" fill="white">
<path d="M911 192H1007V288H911V192Z"/>
</mask>
<path d="M1007 288V289H1008V288H1007ZM1007 192H1006V288H1007H1008V192H1007ZM1007 288V287H911V288V289H1007V288Z" fill="#D0D5DD" fill-opacity="0.32" mask="url(#path-90-inside-43_976_4866)"/>
<mask id="path-92-inside-44_976_4866" fill="white">
<path d="M1007 192H1103V288H1007V192Z"/>
</mask>
<path d="M1103 288V289H1104V288H1103ZM1103 192H1102V288H1103H1104V192H1103ZM1103 288V287H1007V288V289H1103V288Z" fill="#D0D5DD" fill-opacity="0.32" mask="url(#path-92-inside-44_976_4866)"/>
<mask id="path-94-inside-45_976_4866" fill="white">
<path d="M1103 192H1199V288H1103V192Z"/>
</mask>
<path d="M1199 288V289H1200V288H1199ZM1199 192H1198V288H1199H1200V192H1199ZM1199 288V287H1103V288V289H1199V288Z" fill="#D0D5DD" fill-opacity="0.32" mask="url(#path-94-inside-45_976_4866)"/>
<mask id="path-96-inside-46_976_4866" fill="white">
<path d="M1199 192H1295V288H1199V192Z"/>
</mask>
<path d="M1295 288V289H1296V288H1295ZM1295 192H1294V288H1295H1296V192H1295ZM1295 288V287H1199V288V289H1295V288Z" fill="#D0D5DD" fill-opacity="0.32" mask="url(#path-96-inside-46_976_4866)"/>
<mask id="path-98-inside-47_976_4866" fill="white">
<path d="M1295 192H1391V288H1295V192Z"/>
</mask>
<path d="M1391 288V289H1392V288H1391ZM1391 192H1390V288H1391H1392V192H1391ZM1391 288V287H1295V288V289H1391V288Z" fill="#D0D5DD" fill-opacity="0.32" mask="url(#path-98-inside-47_976_4866)"/>
<mask id="path-100-inside-48_976_4866" fill="white">
<path d="M1391 192H1487V288H1391V192Z"/>
</mask>
<path d="M1487 288V289H1488V288H1487ZM1487 192H1486V288H1487H1488V192H1487ZM1487 288V287H1391V288V289H1487V288Z" fill="#D0D5DD" fill-opacity="0.32" mask="url(#path-100-inside-48_976_4866)"/>
<mask id="path-102-inside-49_976_4866" fill="white">
<path d="M-49 288H47V384H-49V288Z"/>
</mask>
<path d="M-49 288H47V384H-49V288Z" fill="#F2F4F7" fill-opacity="0.1"/>
<path d="M47 384V385H48V384H47ZM47 288H46V384H47H48V288H47ZM47 384V383H-49V384V385H47V384Z" fill="#D0D5DD" fill-opacity="0.32" mask="url(#path-102-inside-49_976_4866)"/>
<mask id="path-104-inside-50_976_4866" fill="white">
<path d="M47 288H143V384H47V288Z"/>
</mask>
<path d="M143 384V385H144V384H143ZM143 288H142V384H143H144V288H143ZM143 384V383H47V384V385H143V384Z" fill="#D0D5DD" fill-opacity="0.32" mask="url(#path-104-inside-50_976_4866)"/>
<mask id="path-106-inside-51_976_4866" fill="white">
<path d="M143 288H239V384H143V288Z"/>
</mask>
<path d="M239 384V385H240V384H239ZM239 288H238V384H239H240V288H239ZM239 384V383H143V384V385H239V384Z" fill="#D0D5DD" fill-opacity="0.32" mask="url(#path-106-inside-51_976_4866)"/>
<mask id="path-108-inside-52_976_4866" fill="white">
<path d="M239 288H335V384H239V288Z"/>
</mask>
<path d="M335 384V385H336V384H335ZM335 288H334V384H335H336V288H335ZM335 384V383H239V384V385H335V384Z" fill="#D0D5DD" fill-opacity="0.32" mask="url(#path-108-inside-52_976_4866)"/>
<mask id="path-110-inside-53_976_4866" fill="white">
<path d="M335 288H431V384H335V288Z"/>
</mask>
<path d="M431 384V385H432V384H431ZM431 288H430V384H431H432V288H431ZM431 384V383H335V384V385H431V384Z" fill="#D0D5DD" fill-opacity="0.32" mask="url(#path-110-inside-53_976_4866)"/>
<mask id="path-112-inside-54_976_4866" fill="white">
<path d="M431 288H527V384H431V288Z"/>
</mask>
<path d="M527 384V385H528V384H527ZM527 288H526V384H527H528V288H527ZM527 384V383H431V384V385H527V384Z" fill="#D0D5DD" fill-opacity="0.32" mask="url(#path-112-inside-54_976_4866)"/>
<mask id="path-114-inside-55_976_4866" fill="white">
<path d="M527 288H623V384H527V288Z"/>
</mask>
<path d="M623 384V385H624V384H623ZM623 288H622V384H623H624V288H623ZM623 384V383H527V384V385H623V384Z" fill="#D0D5DD" fill-opacity="0.32" mask="url(#path-114-inside-55_976_4866)"/>
<mask id="path-116-inside-56_976_4866" fill="white">
<path d="M623 288H719V384H623V288Z"/>
</mask>
<path d="M719 384V385H720V384H719ZM719 288H718V384H719H720V288H719ZM719 384V383H623V384V385H719V384Z" fill="#D0D5DD" fill-opacity="0.32" mask="url(#path-116-inside-56_976_4866)"/>
<mask id="path-118-inside-57_976_4866" fill="white">
<path d="M719 288H815V384H719V288Z"/>
</mask>
<path d="M815 384V385H816V384H815ZM815 288H814V384H815H816V288H815ZM815 384V383H719V384V385H815V384Z" fill="#D0D5DD" fill-opacity="0.32" mask="url(#path-118-inside-57_976_4866)"/>
<mask id="path-120-inside-58_976_4866" fill="white">
<path d="M815 288H911V384H815V288Z"/>
</mask>
<path d="M911 384V385H912V384H911ZM911 288H910V384H911H912V288H911ZM911 384V383H815V384V385H911V384Z" fill="#D0D5DD" fill-opacity="0.32" mask="url(#path-120-inside-58_976_4866)"/>
<mask id="path-122-inside-59_976_4866" fill="white">
<path d="M911 288H1007V384H911V288Z"/>
</mask>
<path d="M1007 384V385H1008V384H1007ZM1007 288H1006V384H1007H1008V288H1007ZM1007 384V383H911V384V385H1007V384Z" fill="#D0D5DD" fill-opacity="0.32" mask="url(#path-122-inside-59_976_4866)"/>
<mask id="path-124-inside-60_976_4866" fill="white">
<path d="M1007 288H1103V384H1007V288Z"/>
</mask>
<path d="M1103 384V385H1104V384H1103ZM1103 288H1102V384H1103H1104V288H1103ZM1103 384V383H1007V384V385H1103V384Z" fill="#D0D5DD" fill-opacity="0.32" mask="url(#path-124-inside-60_976_4866)"/>
<mask id="path-126-inside-61_976_4866" fill="white">
<path d="M1103 288H1199V384H1103V288Z"/>
</mask>
<path d="M1103 288H1199V384H1103V288Z" fill="#F2F4F7" fill-opacity="0.1"/>
<path d="M1199 384V385H1200V384H1199ZM1199 288H1198V384H1199H1200V288H1199ZM1199 384V383H1103V384V385H1199V384Z" fill="#D0D5DD" fill-opacity="0.32" mask="url(#path-126-inside-61_976_4866)"/>
<mask id="path-128-inside-62_976_4866" fill="white">
<path d="M1199 288H1295V384H1199V288Z"/>
</mask>
<path d="M1295 384V385H1296V384H1295ZM1295 288H1294V384H1295H1296V288H1295ZM1295 384V383H1199V384V385H1295V384Z" fill="#D0D5DD" fill-opacity="0.32" mask="url(#path-128-inside-62_976_4866)"/>
<mask id="path-130-inside-63_976_4866" fill="white">
<path d="M1295 288H1391V384H1295V288Z"/>
</mask>
<path d="M1391 384V385H1392V384H1391ZM1391 288H1390V384H1391H1392V288H1391ZM1391 384V383H1295V384V385H1391V384Z" fill="#D0D5DD" fill-opacity="0.32" mask="url(#path-130-inside-63_976_4866)"/>
<mask id="path-132-inside-64_976_4866" fill="white">
<path d="M1391 288H1487V384H1391V288Z"/>
</mask>
<path d="M1487 384V385H1488V384H1487ZM1487 288H1486V384H1487H1488V288H1487ZM1487 384V383H1391V384V385H1487V384Z" fill="#D0D5DD" fill-opacity="0.32" mask="url(#path-132-inside-64_976_4866)"/>
<mask id="path-134-inside-65_976_4866" fill="white">
<path d="M-49 384H47V480H-49V384Z"/>
</mask>
<path d="M47 480V481H48V480H47ZM47 384H46V480H47H48V384H47ZM47 480V479H-49V480V481H47V480Z" fill="#D0D5DD" fill-opacity="0.32" mask="url(#path-134-inside-65_976_4866)"/>
<mask id="path-136-inside-66_976_4866" fill="white">
<path d="M47 384H143V480H47V384Z"/>
</mask>
<path d="M143 480V481H144V480H143ZM143 384H142V480H143H144V384H143ZM143 480V479H47V480V481H143V480Z" fill="#D0D5DD" fill-opacity="0.32" mask="url(#path-136-inside-66_976_4866)"/>
<mask id="path-138-inside-67_976_4866" fill="white">
<path d="M143 384H239V480H143V384Z"/>
</mask>
<path d="M239 480V481H240V480H239ZM239 384H238V480H239H240V384H239ZM239 480V479H143V480V481H239V480Z" fill="#D0D5DD" fill-opacity="0.32" mask="url(#path-138-inside-67_976_4866)"/>
<mask id="path-140-inside-68_976_4866" fill="white">
<path d="M239 384H335V480H239V384Z"/>
</mask>
<path d="M335 480V481H336V480H335ZM335 384H334V480H335H336V384H335ZM335 480V479H239V480V481H335V480Z" fill="#D0D5DD" fill-opacity="0.32" mask="url(#path-140-inside-68_976_4866)"/>
<mask id="path-142-inside-69_976_4866" fill="white">
<path d="M335 384H431V480H335V384Z"/>
</mask>
<path d="M431 480V481H432V480H431ZM431 384H430V480H431H432V384H431ZM431 480V479H335V480V481H431V480Z" fill="#D0D5DD" fill-opacity="0.32" mask="url(#path-142-inside-69_976_4866)"/>
<mask id="path-144-inside-70_976_4866" fill="white">
<path d="M431 384H527V480H431V384Z"/>
</mask>
<path d="M527 480V481H528V480H527ZM527 384H526V480H527H528V384H527ZM527 480V479H431V480V481H527V480Z" fill="#D0D5DD" fill-opacity="0.32" mask="url(#path-144-inside-70_976_4866)"/>
<mask id="path-146-inside-71_976_4866" fill="white">
<path d="M527 384H623V480H527V384Z"/>
</mask>
<path d="M527 384H623V480H527V384Z" fill="#F2F4F7" fill-opacity="0.1"/>
<path d="M623 480V481H624V480H623ZM623 384H622V480H623H624V384H623ZM623 480V479H527V480V481H623V480Z" fill="#D0D5DD" fill-opacity="0.32" mask="url(#path-146-inside-71_976_4866)"/>
<mask id="path-148-inside-72_976_4866" fill="white">
<path d="M623 384H719V480H623V384Z"/>
</mask>
<path d="M719 480V481H720V480H719ZM719 384H718V480H719H720V384H719ZM719 480V479H623V480V481H719V480Z" fill="#D0D5DD" fill-opacity="0.32" mask="url(#path-148-inside-72_976_4866)"/>
<mask id="path-150-inside-73_976_4866" fill="white">
<path d="M719 384H815V480H719V384Z"/>
</mask>
<path d="M815 480V481H816V480H815ZM815 384H814V480H815H816V384H815ZM815 480V479H719V480V481H815V480Z" fill="#D0D5DD" fill-opacity="0.32" mask="url(#path-150-inside-73_976_4866)"/>
<mask id="path-152-inside-74_976_4866" fill="white">
<path d="M815 384H911V480H815V384Z"/>
</mask>
<path d="M911 480V481H912V480H911ZM911 384H910V480H911H912V384H911ZM911 480V479H815V480V481H911V480Z" fill="#D0D5DD" fill-opacity="0.32" mask="url(#path-152-inside-74_976_4866)"/>
<mask id="path-154-inside-75_976_4866" fill="white">
<path d="M911 384H1007V480H911V384Z"/>
</mask>
<path d="M1007 480V481H1008V480H1007ZM1007 384H1006V480H1007H1008V384H1007ZM1007 480V479H911V480V481H1007V480Z" fill="#D0D5DD" fill-opacity="0.32" mask="url(#path-154-inside-75_976_4866)"/>
<mask id="path-156-inside-76_976_4866" fill="white">
<path d="M1007 384H1103V480H1007V384Z"/>
</mask>
<path d="M1103 480V481H1104V480H1103ZM1103 384H1102V480H1103H1104V384H1103ZM1103 480V479H1007V480V481H1103V480Z" fill="#D0D5DD" fill-opacity="0.32" mask="url(#path-156-inside-76_976_4866)"/>
<mask id="path-158-inside-77_976_4866" fill="white">
<path d="M1103 384H1199V480H1103V384Z"/>
</mask>
<path d="M1199 480V481H1200V480H1199ZM1199 384H1198V480H1199H1200V384H1199ZM1199 480V479H1103V480V481H1199V480Z" fill="#D0D5DD" fill-opacity="0.32" mask="url(#path-158-inside-77_976_4866)"/>
<mask id="path-160-inside-78_976_4866" fill="white">
<path d="M1199 384H1295V480H1199V384Z"/>
</mask>
<path d="M1295 480V481H1296V480H1295ZM1295 384H1294V480H1295H1296V384H1295ZM1295 480V479H1199V480V481H1295V480Z" fill="#D0D5DD" fill-opacity="0.32" mask="url(#path-160-inside-78_976_4866)"/>
<mask id="path-162-inside-79_976_4866" fill="white">
<path d="M1295 384H1391V480H1295V384Z"/>
</mask>
<path d="M1391 480V481H1392V480H1391ZM1391 384H1390V480H1391H1392V384H1391ZM1391 480V479H1295V480V481H1391V480Z" fill="#D0D5DD" fill-opacity="0.32" mask="url(#path-162-inside-79_976_4866)"/>
<mask id="path-164-inside-80_976_4866" fill="white">
<path d="M1391 384H1487V480H1391V384Z"/>
</mask>
<path d="M1487 480V481H1488V480H1487ZM1487 384H1486V480H1487H1488V384H1487ZM1487 480V479H1391V480V481H1487V480Z" fill="#D0D5DD" fill-opacity="0.32" mask="url(#path-164-inside-80_976_4866)"/>
<mask id="path-166-inside-81_976_4866" fill="white">
<path d="M-49 480H47V576H-49V480Z"/>
</mask>
<path d="M47 576V577H48V576H47ZM47 480H46V576H47H48V480H47ZM47 576V575H-49V576V577H47V576Z" fill="#D0D5DD" fill-opacity="0.32" mask="url(#path-166-inside-81_976_4866)"/>
<mask id="path-168-inside-82_976_4866" fill="white">
<path d="M47 480H143V576H47V480Z"/>
</mask>
<path d="M143 576V577H144V576H143ZM143 480H142V576H143H144V480H143ZM143 576V575H47V576V577H143V576Z" fill="#D0D5DD" fill-opacity="0.32" mask="url(#path-168-inside-82_976_4866)"/>
<mask id="path-170-inside-83_976_4866" fill="white">
<path d="M143 480H239V576H143V480Z"/>
</mask>
<path d="M239 576V577H240V576H239ZM239 480H238V576H239H240V480H239ZM239 576V575H143V576V577H239V576Z" fill="#D0D5DD" fill-opacity="0.32" mask="url(#path-170-inside-83_976_4866)"/>
<mask id="path-172-inside-84_976_4866" fill="white">
<path d="M239 480H335V576H239V480Z"/>
</mask>
<path d="M239 480H335V576H239V480Z" fill="#F2F4F7" fill-opacity="0.1"/>
<path d="M335 576V577H336V576H335ZM335 480H334V576H335H336V480H335ZM335 576V575H239V576V577H335V576Z" fill="#D0D5DD" fill-opacity="0.32" mask="url(#path-172-inside-84_976_4866)"/>
<mask id="path-174-inside-85_976_4866" fill="white">
<path d="M335 480H431V576H335V480Z"/>
</mask>
<path d="M431 576V577H432V576H431ZM431 480H430V576H431H432V480H431ZM431 576V575H335V576V577H431V576Z" fill="#D0D5DD" fill-opacity="0.32" mask="url(#path-174-inside-85_976_4866)"/>
<mask id="path-176-inside-86_976_4866" fill="white">
<path d="M431 480H527V576H431V480Z"/>
</mask>
<path d="M527 576V577H528V576H527ZM527 480H526V576H527H528V480H527ZM527 576V575H431V576V577H527V576Z" fill="#D0D5DD" fill-opacity="0.32" mask="url(#path-176-inside-86_976_4866)"/>
<mask id="path-178-inside-87_976_4866" fill="white">
<path d="M527 480H623V576H527V480Z"/>
</mask>
<path d="M623 576V577H624V576H623ZM623 480H622V576H623H624V480H623ZM623 576V575H527V576V577H623V576Z" fill="#D0D5DD" fill-opacity="0.32" mask="url(#path-178-inside-87_976_4866)"/>
<mask id="path-180-inside-88_976_4866" fill="white">
<path d="M623 480H719V576H623V480Z"/>
</mask>
<path d="M719 576V577H720V576H719ZM719 480H718V576H719H720V480H719ZM719 576V575H623V576V577H719V576Z" fill="#D0D5DD" fill-opacity="0.32" mask="url(#path-180-inside-88_976_4866)"/>
<mask id="path-182-inside-89_976_4866" fill="white">
<path d="M719 480H815V576H719V480Z"/>
</mask>
<path d="M815 576V577H816V576H815ZM815 480H814V576H815H816V480H815ZM815 576V575H719V576V577H815V576Z" fill="#D0D5DD" fill-opacity="0.32" mask="url(#path-182-inside-89_976_4866)"/>
<mask id="path-184-inside-90_976_4866" fill="white">
<path d="M815 480H911V576H815V480Z"/>
</mask>
<path d="M815 480H911V576H815V480Z" fill="#F2F4F7" fill-opacity="0.1"/>
<path d="M911 576V577H912V576H911ZM911 480H910V576H911H912V480H911ZM911 576V575H815V576V577H911V576Z" fill="#D0D5DD" fill-opacity="0.32" mask="url(#path-184-inside-90_976_4866)"/>
<mask id="path-186-inside-91_976_4866" fill="white">
<path d="M911 480H1007V576H911V480Z"/>
</mask>
<path d="M1007 576V577H1008V576H1007ZM1007 480H1006V576H1007H1008V480H1007ZM1007 576V575H911V576V577H1007V576Z" fill="#D0D5DD" fill-opacity="0.32" mask="url(#path-186-inside-91_976_4866)"/>
<mask id="path-188-inside-92_976_4866" fill="white">
<path d="M1007 480H1103V576H1007V480Z"/>
</mask>
<path d="M1103 576V577H1104V576H1103ZM1103 480H1102V576H1103H1104V480H1103ZM1103 576V575H1007V576V577H1103V576Z" fill="#D0D5DD" fill-opacity="0.32" mask="url(#path-188-inside-92_976_4866)"/>
<mask id="path-190-inside-93_976_4866" fill="white">
<path d="M1103 480H1199V576H1103V480Z"/>
</mask>
<path d="M1199 576V577H1200V576H1199ZM1199 480H1198V576H1199H1200V480H1199ZM1199 576V575H1103V576V577H1199V576Z" fill="#D0D5DD" fill-opacity="0.32" mask="url(#path-190-inside-93_976_4866)"/>
<mask id="path-192-inside-94_976_4866" fill="white">
<path d="M1199 480H1295V576H1199V480Z"/>
</mask>
<path d="M1295 576V577H1296V576H1295ZM1295 480H1294V576H1295H1296V480H1295ZM1295 576V575H1199V576V577H1295V576Z" fill="#D0D5DD" fill-opacity="0.32" mask="url(#path-192-inside-94_976_4866)"/>
<mask id="path-194-inside-95_976_4866" fill="white">
<path d="M1295 480H1391V576H1295V480Z"/>
</mask>
<path d="M1391 576V577H1392V576H1391ZM1391 480H1390V576H1391H1392V480H1391ZM1391 576V575H1295V576V577H1391V576Z" fill="#D0D5DD" fill-opacity="0.32" mask="url(#path-194-inside-95_976_4866)"/>
<mask id="path-196-inside-96_976_4866" fill="white">
<path d="M1391 480H1487V576H1391V480Z"/>
</mask>
<path d="M1487 576V577H1488V576H1487ZM1487 480H1486V576H1487H1488V480H1487ZM1487 576V575H1391V576V577H1487V576Z" fill="#D0D5DD" fill-opacity="0.32" mask="url(#path-196-inside-96_976_4866)"/>
<mask id="path-198-inside-97_976_4866" fill="white">
<path d="M-49 576H47V672H-49V576Z"/>
</mask>
<path d="M47 672V673H48V672H47ZM47 576H46V672H47H48V576H47ZM47 672V671H-49V672V673H47V672Z" fill="#D0D5DD" fill-opacity="0.32" mask="url(#path-198-inside-97_976_4866)"/>
<mask id="path-200-inside-98_976_4866" fill="white">
<path d="M47 576H143V672H47V576Z"/>
</mask>
<path d="M47 576H143V672H47V576Z" fill="#F2F4F7" fill-opacity="0.1"/>
<path d="M143 672V673H144V672H143ZM143 576H142V672H143H144V576H143ZM143 672V671H47V672V673H143V672Z" fill="#D0D5DD" fill-opacity="0.32" mask="url(#path-200-inside-98_976_4866)"/>
<mask id="path-202-inside-99_976_4866" fill="white">
<path d="M143 576H239V672H143V576Z"/>
</mask>
<path d="M239 672V673H240V672H239ZM239 576H238V672H239H240V576H239ZM239 672V671H143V672V673H239V672Z" fill="#D0D5DD" fill-opacity="0.32" mask="url(#path-202-inside-99_976_4866)"/>
<mask id="path-204-inside-100_976_4866" fill="white">
<path d="M239 576H335V672H239V576Z"/>
</mask>
<path d="M335 672V673H336V672H335ZM335 576H334V672H335H336V576H335ZM335 672V671H239V672V673H335V672Z" fill="#D0D5DD" fill-opacity="0.32" mask="url(#path-204-inside-100_976_4866)"/>
<mask id="path-206-inside-101_976_4866" fill="white">
<path d="M335 576H431V672H335V576Z"/>
</mask>
<path d="M431 672V673H432V672H431ZM431 576H430V672H431H432V576H431ZM431 672V671H335V672V673H431V672Z" fill="#D0D5DD" fill-opacity="0.32" mask="url(#path-206-inside-101_976_4866)"/>
<mask id="path-208-inside-102_976_4866" fill="white">
<path d="M431 576H527V672H431V576Z"/>
</mask>
<path d="M527 672V673H528V672H527ZM527 576H526V672H527H528V576H527ZM527 672V671H431V672V673H527V672Z" fill="#D0D5DD" fill-opacity="0.32" mask="url(#path-208-inside-102_976_4866)"/>
<mask id="path-210-inside-103_976_4866" fill="white">
<path d="M527 576H623V672H527V576Z"/>
</mask>
<path d="M623 672V673H624V672H623ZM623 576H622V672H623H624V576H623ZM623 672V671H527V672V673H623V672Z" fill="#D0D5DD" fill-opacity="0.32" mask="url(#path-210-inside-103_976_4866)"/>
<mask id="path-212-inside-104_976_4866" fill="white">
<path d="M623 576H719V672H623V576Z"/>
</mask>
<path d="M719 672V673H720V672H719ZM719 576H718V672H719H720V576H719ZM719 672V671H623V672V673H719V672Z" fill="#D0D5DD" fill-opacity="0.32" mask="url(#path-212-inside-104_976_4866)"/>
<mask id="path-214-inside-105_976_4866" fill="white">
<path d="M719 576H815V672H719V576Z"/>
</mask>
<path d="M815 672V673H816V672H815ZM815 576H814V672H815H816V576H815ZM815 672V671H719V672V673H815V672Z" fill="#D0D5DD" fill-opacity="0.32" mask="url(#path-214-inside-105_976_4866)"/>
<mask id="path-216-inside-106_976_4866" fill="white">
<path d="M815 576H911V672H815V576Z"/>
</mask>
<path d="M911 672V673H912V672H911ZM911 576H910V672H911H912V576H911ZM911 672V671H815V672V673H911V672Z" fill="#D0D5DD" fill-opacity="0.32" mask="url(#path-216-inside-106_976_4866)"/>
<mask id="path-218-inside-107_976_4866" fill="white">
<path d="M911 576H1007V672H911V576Z"/>
</mask>
<path d="M1007 672V673H1008V672H1007ZM1007 576H1006V672H1007H1008V576H1007ZM1007 672V671H911V672V673H1007V672Z" fill="#D0D5DD" fill-opacity="0.32" mask="url(#path-218-inside-107_976_4866)"/>
<mask id="path-220-inside-108_976_4866" fill="white">
<path d="M1007 576H1103V672H1007V576Z"/>
</mask>
<path d="M1103 672V673H1104V672H1103ZM1103 576H1102V672H1103H1104V576H1103ZM1103 672V671H1007V672V673H1103V672Z" fill="#D0D5DD" fill-opacity="0.32" mask="url(#path-220-inside-108_976_4866)"/>
<mask id="path-222-inside-109_976_4866" fill="white">
<path d="M1103 576H1199V672H1103V576Z"/>
</mask>
<path d="M1199 672V673H1200V672H1199ZM1199 576H1198V672H1199H1200V576H1199ZM1199 672V671H1103V672V673H1199V672Z" fill="#D0D5DD" fill-opacity="0.32" mask="url(#path-222-inside-109_976_4866)"/>
<mask id="path-224-inside-110_976_4866" fill="white">
<path d="M1199 576H1295V672H1199V576Z"/>
</mask>
<path d="M1295 672V673H1296V672H1295ZM1295 576H1294V672H1295H1296V576H1295ZM1295 672V671H1199V672V673H1295V672Z" fill="#D0D5DD" fill-opacity="0.32" mask="url(#path-224-inside-110_976_4866)"/>
<mask id="path-226-inside-111_976_4866" fill="white">
<path d="M1295 576H1391V672H1295V576Z"/>
</mask>
<path d="M1295 576H1391V672H1295V576Z" fill="#F2F4F7" fill-opacity="0.1"/>
<path d="M1391 672V673H1392V672H1391ZM1391 576H1390V672H1391H1392V576H1391ZM1391 672V671H1295V672V673H1391V672Z" fill="#D0D5DD" fill-opacity="0.32" mask="url(#path-226-inside-111_976_4866)"/>
<mask id="path-228-inside-112_976_4866" fill="white">
<path d="M1391 576H1487V672H1391V576Z"/>
</mask>
<path d="M1487 672V673H1488V672H1487ZM1487 576H1486V672H1487H1488V576H1487ZM1487 672V671H1391V672V673H1487V672Z" fill="#D0D5DD" fill-opacity="0.32" mask="url(#path-228-inside-112_976_4866)"/>
<mask id="path-230-inside-113_976_4866" fill="white">
<path d="M-49 672H47V768H-49V672Z"/>
</mask>
<path d="M47 768V769H48V768H47ZM47 672H46V768H47H48V672H47ZM47 768V767H-49V768V769H47V768Z" fill="#D0D5DD" fill-opacity="0.32" mask="url(#path-230-inside-113_976_4866)"/>
<mask id="path-232-inside-114_976_4866" fill="white">
<path d="M47 672H143V768H47V672Z"/>
</mask>
<path d="M143 768V769H144V768H143ZM143 672H142V768H143H144V672H143ZM143 768V767H47V768V769H143V768Z" fill="#D0D5DD" fill-opacity="0.32" mask="url(#path-232-inside-114_976_4866)"/>
<mask id="path-234-inside-115_976_4866" fill="white">
<path d="M143 672H239V768H143V672Z"/>
</mask>
<path d="M239 768V769H240V768H239ZM239 672H238V768H239H240V672H239ZM239 768V767H143V768V769H239V768Z" fill="#D0D5DD" fill-opacity="0.32" mask="url(#path-234-inside-115_976_4866)"/>
<mask id="path-236-inside-116_976_4866" fill="white">
<path d="M239 672H335V768H239V672Z"/>
</mask>
<path d="M335 768V769H336V768H335ZM335 672H334V768H335H336V672H335ZM335 768V767H239V768V769H335V768Z" fill="#D0D5DD" fill-opacity="0.32" mask="url(#path-236-inside-116_976_4866)"/>
<mask id="path-238-inside-117_976_4866" fill="white">
<path d="M335 672H431V768H335V672Z"/>
</mask>
<path d="M431 768V769H432V768H431ZM431 672H430V768H431H432V672H431ZM431 768V767H335V768V769H431V768Z" fill="#D0D5DD" fill-opacity="0.32" mask="url(#path-238-inside-117_976_4866)"/>
<mask id="path-240-inside-118_976_4866" fill="white">
<path d="M431 672H527V768H431V672Z"/>
</mask>
<path d="M527 768V769H528V768H527ZM527 672H526V768H527H528V672H527ZM527 768V767H431V768V769H527V768Z" fill="#D0D5DD" fill-opacity="0.32" mask="url(#path-240-inside-118_976_4866)"/>
<mask id="path-242-inside-119_976_4866" fill="white">
<path d="M527 672H623V768H527V672Z"/>
</mask>
<path d="M527 672H623V768H527V672Z" fill="#F2F4F7" fill-opacity="0.1"/>
<path d="M623 768V769H624V768H623ZM623 672H622V768H623H624V672H623ZM623 768V767H527V768V769H623V768Z" fill="#D0D5DD" fill-opacity="0.32" mask="url(#path-242-inside-119_976_4866)"/>
<mask id="path-244-inside-120_976_4866" fill="white">
<path d="M623 672H719V768H623V672Z"/>
</mask>
<path d="M719 768V769H720V768H719ZM719 672H718V768H719H720V672H719ZM719 768V767H623V768V769H719V768Z" fill="#D0D5DD" fill-opacity="0.32" mask="url(#path-244-inside-120_976_4866)"/>
<mask id="path-246-inside-121_976_4866" fill="white">
<path d="M719 672H815V768H719V672Z"/>
</mask>
<path d="M815 768V769H816V768H815ZM815 672H814V768H815H816V672H815ZM815 768V767H719V768V769H815V768Z" fill="#D0D5DD" fill-opacity="0.32" mask="url(#path-246-inside-121_976_4866)"/>
<mask id="path-248-inside-122_976_4866" fill="white">
<path d="M815 672H911V768H815V672Z"/>
</mask>
<path d="M911 768V769H912V768H911ZM911 672H910V768H911H912V672H911ZM911 768V767H815V768V769H911V768Z" fill="#D0D5DD" fill-opacity="0.32" mask="url(#path-248-inside-122_976_4866)"/>
<mask id="path-250-inside-123_976_4866" fill="white">
<path d="M911 672H1007V768H911V672Z"/>
</mask>
<path d="M1007 768V769H1008V768H1007ZM1007 672H1006V768H1007H1008V672H1007ZM1007 768V767H911V768V769H1007V768Z" fill="#D0D5DD" fill-opacity="0.32" mask="url(#path-250-inside-123_976_4866)"/>
<mask id="path-252-inside-124_976_4866" fill="white">
<path d="M1007 672H1103V768H1007V672Z"/>
</mask>
<path d="M1103 768V769H1104V768H1103ZM1103 672H1102V768H1103H1104V672H1103ZM1103 768V767H1007V768V769H1103V768Z" fill="#D0D5DD" fill-opacity="0.32" mask="url(#path-252-inside-124_976_4866)"/>
<mask id="path-254-inside-125_976_4866" fill="white">
<path d="M1103 672H1199V768H1103V672Z"/>
</mask>
<path d="M1103 672H1199V768H1103V672Z" fill="#F2F4F7" fill-opacity="0.1"/>
<path d="M1199 768V769H1200V768H1199ZM1199 672H1198V768H1199H1200V672H1199ZM1199 768V767H1103V768V769H1199V768Z" fill="#D0D5DD" fill-opacity="0.32" mask="url(#path-254-inside-125_976_4866)"/>
<mask id="path-256-inside-126_976_4866" fill="white">
<path d="M1199 672H1295V768H1199V672Z"/>
</mask>
<path d="M1295 768V769H1296V768H1295ZM1295 672H1294V768H1295H1296V672H1295ZM1295 768V767H1199V768V769H1295V768Z" fill="#D0D5DD" fill-opacity="0.32" mask="url(#path-256-inside-126_976_4866)"/>
<mask id="path-258-inside-127_976_4866" fill="white">
<path d="M1295 672H1391V768H1295V672Z"/>
</mask>
<path d="M1391 768V769H1392V768H1391ZM1391 672H1390V768H1391H1392V672H1391ZM1391 768V767H1295V768V769H1391V768Z" fill="#D0D5DD" fill-opacity="0.32" mask="url(#path-258-inside-127_976_4866)"/>
<mask id="path-260-inside-128_976_4866" fill="white">
<path d="M1391 672H1487V768H1391V672Z"/>
</mask>
<path d="M1487 768V769H1488V768H1487ZM1487 672H1486V768H1487H1488V672H1487ZM1487 768V767H1391V768V769H1487V768Z" fill="#D0D5DD" fill-opacity="0.32" mask="url(#path-260-inside-128_976_4866)"/>
<mask id="path-262-inside-129_976_4866" fill="white">
<path d="M-49 768H47V864H-49V768Z"/>
</mask>
<path d="M47 864V865H48V864H47ZM47 768H46V864H47H48V768H47ZM47 864V863H-49V864V865H47V864Z" fill="#D0D5DD" fill-opacity="0.32" mask="url(#path-262-inside-129_976_4866)"/>
<mask id="path-264-inside-130_976_4866" fill="white">
<path d="M47 768H143V864H47V768Z"/>
</mask>
<path d="M143 864V865H144V864H143ZM143 768H142V864H143H144V768H143ZM143 864V863H47V864V865H143V864Z" fill="#D0D5DD" fill-opacity="0.32" mask="url(#path-264-inside-130_976_4866)"/>
<mask id="path-266-inside-131_976_4866" fill="white">
<path d="M143 768H239V864H143V768Z"/>
</mask>
<path d="M239 864V865H240V864H239ZM239 768H238V864H239H240V768H239ZM239 864V863H143V864V865H239V864Z" fill="#D0D5DD" fill-opacity="0.32" mask="url(#path-266-inside-131_976_4866)"/>
<mask id="path-268-inside-132_976_4866" fill="white">
<path d="M239 768H335V864H239V768Z"/>
</mask>
<path d="M239 768H335V864H239V768Z" fill="#F2F4F7" fill-opacity="0.1"/>
<path d="M335 864V865H336V864H335ZM335 768H334V864H335H336V768H335ZM335 864V863H239V864V865H335V864Z" fill="#D0D5DD" fill-opacity="0.32" mask="url(#path-268-inside-132_976_4866)"/>
<mask id="path-270-inside-133_976_4866" fill="white">
<path d="M335 768H431V864H335V768Z"/>
</mask>
<path d="M431 864V865H432V864H431ZM431 768H430V864H431H432V768H431ZM431 864V863H335V864V865H431V864Z" fill="#D0D5DD" fill-opacity="0.32" mask="url(#path-270-inside-133_976_4866)"/>
<mask id="path-272-inside-134_976_4866" fill="white">
<path d="M431 768H527V864H431V768Z"/>
</mask>
<path d="M527 864V865H528V864H527ZM527 768H526V864H527H528V768H527ZM527 864V863H431V864V865H527V864Z" fill="#D0D5DD" fill-opacity="0.32" mask="url(#path-272-inside-134_976_4866)"/>
<mask id="path-274-inside-135_976_4866" fill="white">
<path d="M527 768H623V864H527V768Z"/>
</mask>
<path d="M623 864V865H624V864H623ZM623 768H622V864H623H624V768H623ZM623 864V863H527V864V865H623V864Z" fill="#D0D5DD" fill-opacity="0.32" mask="url(#path-274-inside-135_976_4866)"/>
<mask id="path-276-inside-136_976_4866" fill="white">
<path d="M623 768H719V864H623V768Z"/>
</mask>
<path d="M719 864V865H720V864H719ZM719 768H718V864H719H720V768H719ZM719 864V863H623V864V865H719V864Z" fill="#D0D5DD" fill-opacity="0.32" mask="url(#path-276-inside-136_976_4866)"/>
<mask id="path-278-inside-137_976_4866" fill="white">
<path d="M719 768H815V864H719V768Z"/>
</mask>
<path d="M815 864V865H816V864H815ZM815 768H814V864H815H816V768H815ZM815 864V863H719V864V865H815V864Z" fill="#D0D5DD" fill-opacity="0.32" mask="url(#path-278-inside-137_976_4866)"/>
<mask id="path-280-inside-138_976_4866" fill="white">
<path d="M815 768H911V864H815V768Z"/>
</mask>
<path d="M815 768H911V864H815V768Z" fill="#F2F4F7" fill-opacity="0.1"/>
<path d="M911 864V865H912V864H911ZM911 768H910V864H911H912V768H911ZM911 864V863H815V864V865H911V864Z" fill="#D0D5DD" fill-opacity="0.32" mask="url(#path-280-inside-138_976_4866)"/>
<mask id="path-282-inside-139_976_4866" fill="white">
<path d="M911 768H1007V864H911V768Z"/>
</mask>
<path d="M1007 864V865H1008V864H1007ZM1007 768H1006V864H1007H1008V768H1007ZM1007 864V863H911V864V865H1007V864Z" fill="#D0D5DD" fill-opacity="0.32" mask="url(#path-282-inside-139_976_4866)"/>
<mask id="path-284-inside-140_976_4866" fill="white">
<path d="M1007 768H1103V864H1007V768Z"/>
</mask>
<path d="M1103 864V865H1104V864H1103ZM1103 768H1102V864H1103H1104V768H1103ZM1103 864V863H1007V864V865H1103V864Z" fill="#D0D5DD" fill-opacity="0.32" mask="url(#path-284-inside-140_976_4866)"/>
<mask id="path-286-inside-141_976_4866" fill="white">
<path d="M1103 768H1199V864H1103V768Z"/>
</mask>
<path d="M1199 864V865H1200V864H1199ZM1199 768H1198V864H1199H1200V768H1199ZM1199 864V863H1103V864V865H1199V864Z" fill="#D0D5DD" fill-opacity="0.32" mask="url(#path-286-inside-141_976_4866)"/>
<mask id="path-288-inside-142_976_4866" fill="white">
<path d="M1199 768H1295V864H1199V768Z"/>
</mask>
<path d="M1295 864V865H1296V864H1295ZM1295 768H1294V864H1295H1296V768H1295ZM1295 864V863H1199V864V865H1295V864Z" fill="#D0D5DD" fill-opacity="0.32" mask="url(#path-288-inside-142_976_4866)"/>
<mask id="path-290-inside-143_976_4866" fill="white">
<path d="M1295 768H1391V864H1295V768Z"/>
</mask>
<path d="M1391 864V865H1392V864H1391ZM1391 768H1390V864H1391H1392V768H1391ZM1391 864V863H1295V864V865H1391V864Z" fill="#D0D5DD" fill-opacity="0.32" mask="url(#path-290-inside-143_976_4866)"/>
<mask id="path-292-inside-144_976_4866" fill="white">
<path d="M1391 768H1487V864H1391V768Z"/>
</mask>
<path d="M1487 864V865H1488V864H1487ZM1487 768H1486V864H1487H1488V768H1487ZM1487 864V863H1391V864V865H1487V864Z" fill="#D0D5DD" fill-opacity="0.32" mask="url(#path-292-inside-144_976_4866)"/>
<mask id="path-294-inside-145_976_4866" fill="white">
<path d="M-49 864H47V960H-49V864Z"/>
</mask>
<path d="M47 960V961H48V960H47ZM47 864H46V960H47H48V864H47ZM47 960V959H-49V960V961H47V960Z" fill="#D0D5DD" fill-opacity="0.32" mask="url(#path-294-inside-145_976_4866)"/>
<mask id="path-296-inside-146_976_4866" fill="white">
<path d="M47 864H143V960H47V864Z"/>
</mask>
<path d="M143 960V961H144V960H143ZM143 864H142V960H143H144V864H143ZM143 960V959H47V960V961H143V960Z" fill="#D0D5DD" fill-opacity="0.32" mask="url(#path-296-inside-146_976_4866)"/>
<mask id="path-298-inside-147_976_4866" fill="white">
<path d="M143 864H239V960H143V864Z"/>
</mask>
<path d="M239 960V961H240V960H239ZM239 864H238V960H239H240V864H239ZM239 960V959H143V960V961H239V960Z" fill="#D0D5DD" fill-opacity="0.32" mask="url(#path-298-inside-147_976_4866)"/>
<mask id="path-300-inside-148_976_4866" fill="white">
<path d="M239 864H335V960H239V864Z"/>
</mask>
<path d="M335 960V961H336V960H335ZM335 864H334V960H335H336V864H335ZM335 960V959H239V960V961H335V960Z" fill="#D0D5DD" fill-opacity="0.32" mask="url(#path-300-inside-148_976_4866)"/>
<mask id="path-302-inside-149_976_4866" fill="white">
<path d="M335 864H431V960H335V864Z"/>
</mask>
<path d="M431 960V961H432V960H431ZM431 864H430V960H431H432V864H431ZM431 960V959H335V960V961H431V960Z" fill="#D0D5DD" fill-opacity="0.32" mask="url(#path-302-inside-149_976_4866)"/>
<mask id="path-304-inside-150_976_4866" fill="white">
<path d="M431 864H527V960H431V864Z"/>
</mask>
<path d="M527 960V961H528V960H527ZM527 864H526V960H527H528V864H527ZM527 960V959H431V960V961H527V960Z" fill="#D0D5DD" fill-opacity="0.32" mask="url(#path-304-inside-150_976_4866)"/>
<mask id="path-306-inside-151_976_4866" fill="white">
<path d="M527 864H623V960H527V864Z"/>
</mask>
<path d="M623 960V961H624V960H623ZM623 864H622V960H623H624V864H623ZM623 960V959H527V960V961H623V960Z" fill="#D0D5DD" fill-opacity="0.32" mask="url(#path-306-inside-151_976_4866)"/>
<mask id="path-308-inside-152_976_4866" fill="white">
<path d="M623 864H719V960H623V864Z"/>
</mask>
<path d="M719 960V961H720V960H719ZM719 864H718V960H719H720V864H719ZM719 960V959H623V960V961H719V960Z" fill="#D0D5DD" fill-opacity="0.32" mask="url(#path-308-inside-152_976_4866)"/>
<mask id="path-310-inside-153_976_4866" fill="white">
<path d="M719 864H815V960H719V864Z"/>
</mask>
<path d="M815 960V961H816V960H815ZM815 864H814V960H815H816V864H815ZM815 960V959H719V960V961H815V960Z" fill="#D0D5DD" fill-opacity="0.32" mask="url(#path-310-inside-153_976_4866)"/>
<mask id="path-312-inside-154_976_4866" fill="white">
<path d="M815 864H911V960H815V864Z"/>
</mask>
<path d="M911 960V961H912V960H911ZM911 864H910V960H911H912V864H911ZM911 960V959H815V960V961H911V960Z" fill="#D0D5DD" fill-opacity="0.32" mask="url(#path-312-inside-154_976_4866)"/>
<mask id="path-314-inside-155_976_4866" fill="white">
<path d="M911 864H1007V960H911V864Z"/>
</mask>
<path d="M1007 960V961H1008V960H1007ZM1007 864H1006V960H1007H1008V864H1007ZM1007 960V959H911V960V961H1007V960Z" fill="#D0D5DD" fill-opacity="0.32" mask="url(#path-314-inside-155_976_4866)"/>
<mask id="path-316-inside-156_976_4866" fill="white">
<path d="M1007 864H1103V960H1007V864Z"/>
</mask>
<path d="M1103 960V961H1104V960H1103ZM1103 864H1102V960H1103H1104V864H1103ZM1103 960V959H1007V960V961H1103V960Z" fill="#D0D5DD" fill-opacity="0.32" mask="url(#path-316-inside-156_976_4866)"/>
<mask id="path-318-inside-157_976_4866" fill="white">
<path d="M1103 864H1199V960H1103V864Z"/>
</mask>
<path d="M1199 960V961H1200V960H1199ZM1199 864H1198V960H1199H1200V864H1199ZM1199 960V959H1103V960V961H1199V960Z" fill="#D0D5DD" fill-opacity="0.32" mask="url(#path-318-inside-157_976_4866)"/>
<mask id="path-320-inside-158_976_4866" fill="white">
<path d="M1199 864H1295V960H1199V864Z"/>
</mask>
<path d="M1295 960V961H1296V960H1295ZM1295 864H1294V960H1295H1296V864H1295ZM1295 960V959H1199V960V961H1295V960Z" fill="#D0D5DD" fill-opacity="0.32" mask="url(#path-320-inside-158_976_4866)"/>
<mask id="path-322-inside-159_976_4866" fill="white">
<path d="M1295 864H1391V960H1295V864Z"/>
</mask>
<path d="M1391 960V961H1392V960H1391ZM1391 864H1390V960H1391H1392V864H1391ZM1391 960V959H1295V960V961H1391V960Z" fill="#D0D5DD" fill-opacity="0.32" mask="url(#path-322-inside-159_976_4866)"/>
<mask id="path-324-inside-160_976_4866" fill="white">
<path d="M1391 864H1487V960H1391V864Z"/>
</mask>
<path d="M1391 864H1487V960H1391V864Z" fill="#F2F4F7" fill-opacity="0.1"/>
<path d="M1487 960V961H1488V960H1487ZM1487 864H1486V960H1487H1488V864H1487ZM1487 960V959H1391V960V961H1487V960Z" fill="#D0D5DD" fill-opacity="0.32" mask="url(#path-324-inside-160_976_4866)"/>
<mask id="path-326-inside-161_976_4866" fill="white">
<path d="M-49 960H47V1056H-49V960Z"/>
</mask>
<path d="M47 1056V1057H48V1056H47ZM47 960H46V1056H47H48V960H47ZM47 1056V1055H-49V1056V1057H47V1056Z" fill="#D0D5DD" fill-opacity="0.32" mask="url(#path-326-inside-161_976_4866)"/>
<mask id="path-328-inside-162_976_4866" fill="white">
<path d="M47 960H143V1056H47V960Z"/>
</mask>
<path d="M143 1056V1057H144V1056H143ZM143 960H142V1056H143H144V960H143ZM143 1056V1055H47V1056V1057H143V1056Z" fill="#D0D5DD" fill-opacity="0.32" mask="url(#path-328-inside-162_976_4866)"/>
<mask id="path-330-inside-163_976_4866" fill="white">
<path d="M143 960H239V1056H143V960Z"/>
</mask>
<path d="M239 1056V1057H240V1056H239ZM239 960H238V1056H239H240V960H239ZM239 1056V1055H143V1056V1057H239V1056Z" fill="#D0D5DD" fill-opacity="0.32" mask="url(#path-330-inside-163_976_4866)"/>
<mask id="path-332-inside-164_976_4866" fill="white">
<path d="M239 960H335V1056H239V960Z"/>
</mask>
<path d="M335 1056V1057H336V1056H335ZM335 960H334V1056H335H336V960H335ZM335 1056V1055H239V1056V1057H335V1056Z" fill="#D0D5DD" fill-opacity="0.32" mask="url(#path-332-inside-164_976_4866)"/>
<mask id="path-334-inside-165_976_4866" fill="white">
<path d="M335 960H431V1056H335V960Z"/>
</mask>
<path d="M335 960H431V1056H335V960Z" fill="#F2F4F7" fill-opacity="0.1"/>
<path d="M431 1056V1057H432V1056H431ZM431 960H430V1056H431H432V960H431ZM431 1056V1055H335V1056V1057H431V1056Z" fill="#D0D5DD" fill-opacity="0.32" mask="url(#path-334-inside-165_976_4866)"/>
<mask id="path-336-inside-166_976_4866" fill="white">
<path d="M431 960H527V1056H431V960Z"/>
</mask>
<path d="M527 1056V1057H528V1056H527ZM527 960H526V1056H527H528V960H527ZM527 1056V1055H431V1056V1057H527V1056Z" fill="#D0D5DD" fill-opacity="0.32" mask="url(#path-336-inside-166_976_4866)"/>
<mask id="path-338-inside-167_976_4866" fill="white">
<path d="M527 960H623V1056H527V960Z"/>
</mask>
<path d="M623 1056V1057H624V1056H623ZM623 960H622V1056H623H624V960H623ZM623 1056V1055H527V1056V1057H623V1056Z" fill="#D0D5DD" fill-opacity="0.32" mask="url(#path-338-inside-167_976_4866)"/>
<mask id="path-340-inside-168_976_4866" fill="white">
<path d="M623 960H719V1056H623V960Z"/>
</mask>
<path d="M719 1056V1057H720V1056H719ZM719 960H718V1056H719H720V960H719ZM719 1056V1055H623V1056V1057H719V1056Z" fill="#D0D5DD" fill-opacity="0.32" mask="url(#path-340-inside-168_976_4866)"/>
<mask id="path-342-inside-169_976_4866" fill="white">
<path d="M719 960H815V1056H719V960Z"/>
</mask>
<path d="M719 960H815V1056H719V960Z" fill="#F2F4F7" fill-opacity="0.1"/>
<path d="M815 1056V1057H816V1056H815ZM815 960H814V1056H815H816V960H815ZM815 1056V1055H719V1056V1057H815V1056Z" fill="#D0D5DD" fill-opacity="0.32" mask="url(#path-342-inside-169_976_4866)"/>
<mask id="path-344-inside-170_976_4866" fill="white">
<path d="M815 960H911V1056H815V960Z"/>
</mask>
<path d="M911 1056V1057H912V1056H911ZM911 960H910V1056H911H912V960H911ZM911 1056V1055H815V1056V1057H911V1056Z" fill="#D0D5DD" fill-opacity="0.32" mask="url(#path-344-inside-170_976_4866)"/>
<mask id="path-346-inside-171_976_4866" fill="white">
<path d="M911 960H1007V1056H911V960Z"/>
</mask>
<path d="M1007 1056V1057H1008V1056H1007ZM1007 960H1006V1056H1007H1008V960H1007ZM1007 1056V1055H911V1056V1057H1007V1056Z" fill="#D0D5DD" fill-opacity="0.32" mask="url(#path-346-inside-171_976_4866)"/>
<mask id="path-348-inside-172_976_4866" fill="white">
<path d="M1007 960H1103V1056H1007V960Z"/>
</mask>
<path d="M1103 1056V1057H1104V1056H1103ZM1103 960H1102V1056H1103H1104V960H1103ZM1103 1056V1055H1007V1056V1057H1103V1056Z" fill="#D0D5DD" fill-opacity="0.32" mask="url(#path-348-inside-172_976_4866)"/>
<mask id="path-350-inside-173_976_4866" fill="white">
<path d="M1103 960H1199V1056H1103V960Z"/>
</mask>
<path d="M1199 1056V1057H1200V1056H1199ZM1199 960H1198V1056H1199H1200V960H1199ZM1199 1056V1055H1103V1056V1057H1199V1056Z" fill="#D0D5DD" fill-opacity="0.32" mask="url(#path-350-inside-173_976_4866)"/>
<mask id="path-352-inside-174_976_4866" fill="white">
<path d="M1199 960H1295V1056H1199V960Z"/>
</mask>
<path d="M1295 1056V1057H1296V1056H1295ZM1295 960H1294V1056H1295H1296V960H1295ZM1295 1056V1055H1199V1056V1057H1295V1056Z" fill="#D0D5DD" fill-opacity="0.32" mask="url(#path-352-inside-174_976_4866)"/>
<mask id="path-354-inside-175_976_4866" fill="white">
<path d="M1295 960H1391V1056H1295V960Z"/>
</mask>
<path d="M1391 1056V1057H1392V1056H1391ZM1391 960H1390V1056H1391H1392V960H1391ZM1391 1056V1055H1295V1056V1057H1391V1056Z" fill="#D0D5DD" fill-opacity="0.32" mask="url(#path-354-inside-175_976_4866)"/>
<mask id="path-356-inside-176_976_4866" fill="white">
<path d="M1391 960H1487V1056H1391V960Z"/>
</mask>
<path d="M1487 1056V1057H1488V1056H1487ZM1487 960H1486V1056H1487H1488V960H1487ZM1487 1056V1055H1391V1056V1057H1487V1056Z" fill="#D0D5DD" fill-opacity="0.32" mask="url(#path-356-inside-176_976_4866)"/>
</g>
<rect x="-240.5" y="0.5" width="1919" height="1439" stroke="#D0D5DD" stroke-opacity="0.32"/>
</g>
</g>
</g>
<defs>
<filter id="filter0_f_976_4866" x="-400" y="321.736" width="1144.61" height="1119.26" filterUnits="userSpaceOnUse" color-interpolation-filters="sRGB">
<feFlood flood-opacity="0" result="BackgroundImageFix"/>
<feBlend mode="normal" in="SourceGraphic" in2="BackgroundImageFix" result="shape"/>
<feGaussianBlur stdDeviation="200" result="effect1_foregroundBlur_976_4866"/>
</filter>
<filter id="filter1_f_976_4866" x="-97.3682" y="-139.524" width="1144.61" height="1119.26" filterUnits="userSpaceOnUse" color-interpolation-filters="sRGB">
<feFlood flood-opacity="0" result="BackgroundImageFix"/>
<feBlend mode="normal" in="SourceGraphic" in2="BackgroundImageFix" result="shape"/>
<feGaussianBlur stdDeviation="200" result="effect1_foregroundBlur_976_4866"/>
</filter>
<filter id="filter2_f_976_4866" x="771.002" y="-400" width="1043.88" height="1025.94" filterUnits="userSpaceOnUse" color-interpolation-filters="sRGB">
<feFlood flood-opacity="0" result="BackgroundImageFix"/>
<feBlend mode="normal" in="SourceGraphic" in2="BackgroundImageFix" result="shape"/>
<feGaussianBlur stdDeviation="200" result="effect1_foregroundBlur_976_4866"/>
</filter>
<radialGradient id="paint0_radial_976_4866" cx="0" cy="0" r="1" gradientUnits="userSpaceOnUse" gradientTransform="translate(720 -0.000142694) rotate(90) scale(1197 751.588)">
<stop/>
<stop offset="0.953125" stop-opacity="0"/>
</radialGradient>
<clipPath id="clip0_976_4866">
<rect width="1440" height="1152" fill="white"/>
</clipPath>
<clipPath id="clip1_976_4866">
<rect width="1438" height="1041" fill="white"/>
</clipPath>
<clipPath id="clip2_976_4866">
<rect x="-241" width="1920" height="1440" fill="white"/>
</clipPath>
</defs>
</svg>
